<svg xmlns="http://www.w3.org/2000/svg" width="560" height="154" viewBox="0 0 5600 1540" preserveAspectRatio="xMidYMid meet"><g fill="#12034b"><path d="M0 770l0-770 2800 0 2800 0 0 770 0 770-2800 0-2800 0 0-770z"/></g><g fill="#76c067"><path d="M0 770V0l1363 2c749 1 1322 3 1272 5-249 8-677 56-915 103-306 60-632 165-836 268-178 90-335 226-390 339-25 51-29 69-29 148 0 77 4 98 27 148 34 72 134 178 234 247 100 69 314 172 459 220 142 47 164 50 76 9-96-44-257-154-323-221-36-37-71-87-94-133-34-70-36-77-32-157 5-102 35-169 116-258 56-63 225-183 315-224 29-13 72-33 97-44 170-79 455-165 710-216 393-78 756-111 1230-111 426 0 620 14 1030 76 180 27 242 39 465 95 16 4 17 3 4-5-40-25-343-116-519-155-41-10-93-21-115-26C3967 69 3487 15 3225 7 3176 5 3690 3 4368 2L5600 0v770 770H2800 0Zm1795 632c174-80 221-290 94-423-19-20-43-40-53-46-18-10-18-12 7-64 47-94 29-190-48-258-64-56-95-64-241-65-116-1-134 1-153 18-21 19-21 25-21 423 0 395 0 403 21 424 20 20 29 21 182 17 143-3 168-6 212-26zm343 12c22-15 22-17 22-299V830c-8.7-5.7 7.7-28.8-22.3-22.8-24-15-41.4-9.6-65.4 3.4L2055 826l-3 284c-2 281-2 285 19 303 26 21 38 21 67 1zm597-18c72-33 129-87 162-154l28-57 3-290c2-159 1-299-2-310-3-12-17-27-32-34-22-10-31-9-50 4-32 21-36 41-32 188 2 70 0 127-3 127-4 0-27-11-51-25-109-61-252-54-357 16-96 64-141 146-141 256 1 109 48 194 140 253 100 64 230 74 335 26zM2152 733c26-23 24-78-4-97-47-33-108-7-108 46 0 17 7 40 17 50 20 22 70 23 95 1z"/></g><g fill="#fefefd"><path d="M-34.7 1146.7C-34.7 875.7 3 912 14 951c47 175 251 346 558 468 85 34 318 104 324 98 2-2-35-21-82-42C413 1296 199 1034 250 784 295 561 511 365 900 192 959 166 884 183 759 224 375 349 141 504 40 698 27 722 14 756 10 773 5 791-45.7 967.2-46.7 746.2L-26.5-54C-898.7-66.2 3496.1-132.2 2635 7 2386 15 1958 63 1720 110 1414 170 1088 275 884 378 706 468 549 604 494 717c-25 51-29 69-29 148 0 77 4 98 27 148 34 72 134 178 234 247 100 69 314 172 459 220 142 47 164 50 76 9-96-44-257-154-323-221-36-37-71-87-94-133-34-70-36-77-32-157 5-102 35-169 116-258 56-63 225-183 315-224 29-13 72-33 97-44 170-79 455-165 710-216 393-78 756-111 1230-111 426 0 620 14 1030 76 180 27 242 39 465 95 16 4 17 3 4-5-40-25-343-116-519-155-41-10-93-21-115-26C3967 69 3487 15 3225 7c-49-2-606.6-20.6 71.4-21.6l2366.6-78.3-35.8 382.6c-21.9 234-6 304.5-16 291.5C5590.2 555.3 5535 538 5510 558c-21 17-22 24-21 165 1 83-2 147-7 147-5 0-30-11-55-25-215-120-497 32-497 268 0 147 96 264 250 303 179 45 369-59.6 411-228.6 4-16 23.6-175.2 24.6-69.2l23 458.2-3010.2 135.2C1859.4 1491.2-415.9 2342.7-34.7 1146.7ZM1795 1402c174-80 221-290 94-423-19-20-43-40-53-46-18-10-18-12 7-64 47-94 29-190-48-258-64-56-95-64-241-65-116-1-134 1-153 18-21 19-21 25-21 423 0 395 0 403 21 424 20 20 29 21 182 17 143-3 168-6 212-26zm343 12c22-15 22-17 22-299V830l-14-17c-24-15-49.6-15.4-73.6-2.4L2055 826l-3 284c-2 281-2 285 19 303 26 21 38 21 67 1zm597-18c72-33 129-87 162-154l28-57 3-290c2-159 1-299-2-310-3-12-17-27-32-34-22-10-31-9-50 4-32 21-36 41-32 188 2 70 0 127-3 127-4 0-27-11-51-25-109-61-252-54-357 16-96 64-141 146-141 256 1 109 48 194 140 253 100 64 230 74 335 26zm464 17c20-17 21-28 24-243l2-225 75-3c99-4 134-35 96-84-11-14-29-18-89-18-42 0-78-4-82-9-3-6-2-29 1-52 12-75 83-129 171-129 36 0 53-16 53-50 0-38-18-50-75-50-155 0-251 83-263 227-5 63-5 63-36 63-39 0-56 15-56 51 0 32 15 46 55 51l30 3 2 225c3 215 4 226 24 243 12 9 27 17 34 17 7 0 22-8 34-17zm722-19c194-87 249-322 112-475-132-146-363-153-503-16-62 61-90 126-90 212 1 109 47 195 137 253 104 67 231 76 344 26zm681 22c150-35 248-151 248-293 0-112-36-186-120-248-69-50-122-67-215-68-66-1-90 4-136 25-73 33-128 84-164 150-26 46-30 63-29 133 0 63 5 89 22 122 47 90 126 154 221 179 60 17 104 17 173 0zM2152 733c26-23 24-78-4-97-47-33-108-7-108 46 0 17 7 40 17 50 20 22 70 23 95 1z"/><path d="M1500 1160l0-160 110 0c91 0 118 4 150 20 65 33 103 109 86 174-9 36-65 96-103 112-20 9-72 14-138 14l-105 0 0-160z"/><path d="M1500 770l0-120 76 0c117 0 175 39 176 119 1 85-49 121-169 121l-83 0 0-120z"/><path d="M2512 1307c-50-19-98-62-121-110-78-161 86-328 272-276 47 13 115 72 134 116 17 42 17 127-1 162-22 42-90 98-133 110-49 14-109 13-151-2z"/><path d="M3710 1311c-50-16-90-42-113-73-77-103-51-230 60-295 40-24 59-28 118-28 76 1 111 14 159 61 42 43 59 82 58 140-1 76-43 144-114 180-36 19-131 27-168 15z"/><path d="M4442 1307c-43-16-99-62-123-101-23-37-25-121-5-169 20-49 89-103 148-117 141-34 278 62 278 195 0 43-23 101-53 134-54 59-167 86-245 58z"/><path d="M5159 1293c-35-19-64-43-84-71-26-38-30-53-30-107 0-55 5-69 31-107 82-114 252-129 346-30 49 51 58 72 58 137 0 159-171 253-321 178z"/></g></svg>
